<?xml version="1.0" standalone="no"?><svg xmlns:xlink="http://www.w3.org/1999/xlink" xmlns="http://www.w3.org/2000/svg" viewBox="0 0 1000 545.4590152851445" preserveAspectRatio="xMaxYMax slice"><g transform="scale(1.5365042684088577)"><rect x="0" y="0" width="650.8333333333333" height="355" fill="#080017"/><rect x="59.166666666666664" y="0" width="59.166666666666664" height="59.166666666666664" fill="#080017"/><rect x="88.75" y="0" width="29.58" height="29.58" fill="#328bf8"/><g transform="translate(88.75,0) scale(1.4789999999999999) rotate(0)"><path d="M5 0H10L5 5L0 10V5L5 0Z" fill="#1e488d"/><path d="M20 15V20H15L20 15Z" fill="#1e488d"/><path d="M20 5V10L15 15L10 20H5L20 5Z" fill="#1e488d"/><path d="M15 0H20L5 15.0002L0 20.0002V15.0002L15 0Z" fill="#1e488d"/></g><rect x="591.67" y="59.17" width="59.17" height="59.17" fill="#2255a1"/><g transform="translate(591.67,59.17) scale(2.9585) rotate(0)"><path d="M5 0H10L5 5L0 10V5L5 0Z" fill="#0a0830"/><path d="M20 15V20H15L20 15Z" fill="#0a0830"/><path d="M20 5V10L15 15L10 20H5L20 5Z" fill="#0a0830"/><path d="M15 0H20L5 15.0002L0 20.0002V15.0002L15 0Z" fill="#0a0830"/></g><rect x="236.67" y="118.33" width="59.17" height="59.17" fill="#1533bc"/><g transform="translate(236.67,118.33) scale(2.9585) rotate(0)"><path d="M10 5L5 0L0 5L5 10L0 15L5 20L10 15L15 20L20 15L15 10L20 5L15 0L10 5Z" fill="#173268"/></g><rect x="118.33" y="177.5" width="59.17" height="59.17" fill="#2e7fe5"/><rect x="118.33" y="177.5" width="59.17" height="59.17" fill="#2258a6"/><rect x="236.66666666666666" y="177.5" width="59.166666666666664" height="59.166666666666664" fill="#080017"/><rect x="59.17" y="236.67" width="59.17" height="59.17" fill="#17336a"/><g transform="translate(59.17,236.67) scale(2.9585) rotate(0)"><path d="M5 0H10L5 5L0 10V5L5 0Z" fill="#0b0925"/><path d="M20 15V20H15L20 15Z" fill="#0b0925"/><path d="M20 5V10L15 15L10 20H5L20 5Z" fill="#0b0925"/><path d="M15 0H20L5 15.0002L0 20.0002V15.0002L15 0Z" fill="#0b0925"/></g><rect x="355" y="236.67" width="59.17" height="59.17" fill="#1e488b"/><g transform="translate(355,236.67) scale(2.9585) rotate(0)"><path d="M5 0H10L5 5L0 10V5L5 0Z" fill="#0e165e"/><path d="M20 15V20H15L20 15Z" fill="#0e165e"/><path d="M20 5V10L15 15L10 20H5L20 5Z" fill="#0e165e"/><path d="M15 0H20L5 15.0002L0 20.0002V15.0002L15 0Z" fill="#0e165e"/></g></g></svg>