<?xml version="1.0" standalone="no"?><svg xmlns:xlink="http://www.w3.org/1999/xlink" xmlns="http://www.w3.org/2000/svg" viewBox="0 0 1000 545.4590152851445" preserveAspectRatio="xMaxYMax slice"><g transform="scale(1.5365042684088577)"><rect x="0" y="0" width="650.8333333333333" height="355" fill="#080017"/><rect x="295.83" y="0" width="59.17" height="59.17" fill="#173ad1"/><g transform="translate(295.83,0) scale(2.9585) rotate(0)"><rect width="2" height="20" fill="#248aaf"/><rect x="4" width="2" height="20" fill="#248aaf"/><rect x="8" width="2" height="20" fill="#248aaf"/><rect x="12" width="2" height="20" fill="#248aaf"/><rect x="16" width="2" height="20" fill="#248aaf"/></g><rect x="414.16666666666663" y="0" width="59.166666666666664" height="59.166666666666664" fill="#080017"/><rect x="591.67" y="0" width="59.17" height="59.17" fill="#0e175f"/><path d="M 591.67 0 A 59.17 59.17 0 0 0 650.8399999999999 59.17 L 650.8399999999999 0" fill="#2cb1da"/><rect x="414.17" y="59.17" width="59.17" height="59.17" fill="#1d6687"/><rect x="414.17" y="59.17" width="59.17" height="59.17" fill="#09062a"/><rect x="59.17" y="118.33" width="59.17" height="59.17" fill="#112e4a"/><path d="M 59.17 118.33 A 59.17 59.17 0 0 1 118.34 177.5 L 59.17 177.5" fill="#1e6c8e"/><rect x="532.5" y="118.33" width="59.17" height="59.17" fill="#15405e"/><polygon points="532.5,118.33 591.67,118.33 591.67,177.5" fill="#2383a7"/><rect x="414.17" y="177.5" width="59.17" height="59.17" fill="#0d1b34"/><polygon points="414.17,177.5 473.34000000000003,177.5 414.17,236.67000000000002" fill="#09021e"/><rect x="118.33" y="295.83" width="59.17" height="59.17" fill="#0d155b"/><g transform="translate(118.33,295.83) scale(2.9585) rotate(0)"><path d="M5 0H10L5 5L0 10V5L5 0Z" fill="#1a5979"/><path d="M20 15V20H15L20 15Z" fill="#1a5979"/><path d="M20 5V10L15 15L10 20H5L20 5Z" fill="#1a5979"/><path d="M15 0H20L5 15.0002L0 20.0002V15.0002L15 0Z" fill="#1a5979"/></g></g></svg>